<svg version="1.1" xmlns="http://www.w3.org/2000/svg" viewBox="0 0 595.28 229.37">
	<path fill-rule='evenodd' clip-rule='evenodd' fill='#c23a22dc' d="M64.6,133.54c-2.77,1.51-5.51,3.04-8.22,4.59c-2.7,1.55-5.31,3.15-7.8,4.8c-2.36,1.64-4.68,3.26-6.97,4.87
		c-2.29,1.61-4.47,3.3-6.55,5.08c-4.14,3.32-7.86,6.63-11.15,9.91c-3.29,3.29-6.11,6.52-8.47,9.7c-0.67,0.82-1.26,1.6-1.76,2.35
		c-0.5,0.75-1.02,1.53-1.56,2.35c-0.42,0.68-0.82,1.39-1.21,2.11c-0.39,0.72-0.72,1.49-1,2.31c-1.38,2.76-2.21,5.25-2.49,7.46
		c-0.01,1.11,0.01,2.06,0.03,2.86c0.03,0.8,0.11,1.41,0.24,1.83c0.13,0.14,0.21,0.28,0.24,0.41c0.03,0.14,0.04,0.28,0.03,0.41
		c-0.01,0.13,0.01,0.22,0.03,0.28c0.03,0.06,0.11,0.15,0.24,0.28v-3.03c0.01-0.42,0.06-0.89,0.17-1.41
		c0.11-0.52,0.24-1.06,0.38-1.62c0.4-1.1,0.84-2.15,1.31-3.14c0.47-1,1.05-1.97,1.73-2.94c1.26-1.95,2.62-3.86,4.08-5.73
		c1.46-1.88,2.96-3.65,4.5-5.32c1.67-1.79,3.38-3.53,5.12-5.21c1.74-1.69,3.45-3.36,5.12-5.01c1.78-1.66,3.51-3.25,5.19-4.77
		c1.68-1.52,3.35-2.97,4.99-4.35c3.34-2.77,6.46-5.31,9.36-7.63c2.89-2.32,5.39-4.38,7.49-6.18c1.1-0.82,2.07-1.53,2.9-2.14
		c0.83-0.61,1.52-1.19,2.07-1.73c0.68-0.42,1.18-0.75,1.48-1C64.46,133.68,64.61,133.55,64.6,133.54L64.6,133.54z M334.01,94.59
		l0.17,0.29c0.11,0.22,0.17,0.4,0.17,0.55c0.13,0.14,0.22,0.28,0.28,0.41c0.06,0.14,0.15,0.28,0.28,0.41
		c0.01,0.41,0.06,0.77,0.14,1.07c0.08,0.3,0.13,0.59,0.14,0.86c0.01,0.68-0.01,1.32-0.03,1.93c-0.03,0.61-0.11,1.25-0.24,1.93
		c-0.32,2.26-0.78,4.37-1.38,6.35c-1.38,4.1-2.48,7.78-3.31,11.05c-0.51,1.38-0.87,2.76-1.1,4.14c-0.26,0.56-0.43,1.1-0.52,1.62
		c-0.09,0.52-0.19,1-0.31,1.42c-0.32,1.89-0.51,2.81-0.55,2.76c1.25-1.39,2.4-2.96,3.48-4.7c1.07-1.74,2.03-3.58,2.86-5.52
		c0.42-0.96,0.82-1.94,1.21-2.93c0.39-1,0.72-2.04,1-3.14c0.51-1.93,0.87-3.87,1.1-5.8c0.28-1.98,0.28-3.82,0-5.52
		c-0.01-0.83-0.13-1.59-0.35-2.28c-0.22-0.69-0.47-1.31-0.76-1.86c-0.02-0.28-0.12-0.55-0.31-0.83c-0.19-0.28-0.36-0.55-0.52-0.83
		c-0.28-0.28-0.55-0.55-0.83-0.83c-0.32-0.32-0.51-0.51-0.55-0.55L334.01,94.59z M494.42,91.55c-0.01,0.14-0.06,0.27-0.14,0.41
		c-0.08,0.14-0.13,0.27-0.14,0.41c0,0.5,0,0.87,0,1.1c-0.13,0.14-0.21,0.28-0.24,0.41c-0.03,0.14-0.04,0.28-0.03,0.41
		c-0.01,0.14-0.06,0.28-0.14,0.41c-0.08,0.14-0.13,0.28-0.14,0.41c-0.01,0.14-0.06,0.28-0.14,0.41c-0.08,0.14-0.13,0.28-0.14,0.41
		c-0.01,0.14-0.06,0.28-0.14,0.41c-0.08,0.14-0.13,0.28-0.14,0.41c0.01,0.14-0.01,0.28-0.03,0.41c-0.03,0.14-0.11,0.28-0.24,0.41
		c-0.01,0.14-0.06,0.28-0.14,0.41c-0.08,0.14-0.13,0.28-0.14,0.41c-0.83,2.21-1.66,4.14-2.49,5.8c-0.01,0.28-0.06,0.55-0.17,0.79
		c-0.11,0.25-0.24,0.44-0.38,0.59c-0.01,0.26-0.06,0.5-0.17,0.69c-0.11,0.2-0.24,0.43-0.38,0.69c0,0.07-0.02,0.16-0.05,0.25
		l-0.02,0.05l0.01,0.01c0.74,0.45,0.85,1.55,0.31,3.28c-1.24,3.07-2.46,6.04-3.67,8.9l-0.43,1l0.48-0.51
		c0.31-0.33,0.59-0.7,0.86-1.11c0.28-0.28,0.55-0.62,0.83-1c0.28-0.39,0.55-0.79,0.83-1.21c0.26-0.15,0.43-0.33,0.52-0.55
		c0.09-0.22,0.19-0.4,0.31-0.55c0.14-0.26,0.28-0.5,0.42-0.69c0.14-0.2,0.28-0.43,0.42-0.69c0.98-1.66,1.86-3.38,2.63-5.15
		c0.77-1.77,1.37-3.55,1.8-5.35c0.42-1.67,0.69-3.24,0.83-4.7c0.14-1.46,0.14-2.75,0-3.87c0-0.28,0-0.55,0-0.83
		c0-0.28,0-0.55,0-0.83c-0.13-0.15-0.21-0.33-0.24-0.55c-0.03-0.22-0.04-0.4-0.03-0.55c-0.01-0.01-0.06-0.06-0.14-0.14
		c-0.08-0.08-0.13-0.13-0.14-0.14c0-0.11,0-0.19,0-0.24v-0.03v-0.01v-0.14c0-0.04,0-0.07,0-0.09V91.55z M407.12,91.55
		c-1.39-0.01-2.82,0.08-4.28,0.27c-1.46,0.19-2.89,0.56-4.28,1.1c-1.39,0.43-2.76,0.95-4.11,1.59c-1.35,0.63-2.65,1.3-3.9,2
		c-1.38,0.83-2.7,1.72-3.94,2.66c-1.24,0.94-2.42,1.89-3.52,2.87c-1.11,0.98-2.14,1.99-3.11,3.04c-0.97,1.05-1.87,2.06-2.7,3.04
		l-0.04,0.06l0.04,0.31c0.03,0.55-0.09,1.25-0.37,2.12c-0.62,1.54-1.24,3.05-1.86,4.53l-0.12,0.29l0.74-0.84
		c0.3-0.32,0.61-0.62,0.92-0.91c0.63-0.58,1.23-1.15,1.8-1.69c0.55-0.55,1.11-1.11,1.69-1.66c0.58-0.55,1.22-1.11,1.9-1.66
		c2.22-2.2,4.35-4.15,6.39-5.84c2.04-1.69,3.97-3.15,5.77-4.39c0.96-0.69,1.87-1.31,2.73-1.87c0.86-0.55,1.7-1.04,2.52-1.45
		c0.15-0.13,0.33-0.22,0.55-0.28c0.22-0.06,0.4-0.15,0.55-0.28c0.13-0.01,0.22-0.06,0.28-0.14c0.06-0.08,0.15-0.13,0.28-0.14
		c0.01-0.01,0.06-0.06,0.17-0.14c0.11-0.08,0.24-0.13,0.38-0.14c0.27-0.16,0.56-0.33,0.86-0.52c0.31-0.19,0.66-0.29,1.07-0.31
		c0.26-0.14,0.5-0.27,0.69-0.41c0.2-0.14,0.43-0.27,0.69-0.41c0.27-0.13,0.49-0.22,0.66-0.27c0.17-0.06,0.32-0.15,0.45-0.27
		c0.29-0.13,0.54-0.21,0.76-0.24C406.99,91.55,407.1,91.54,407.12,91.55L407.12,91.55z M219.74,91.55
		c-1.39-0.01-2.82,0.08-4.28,0.27c-1.46,0.19-2.89,0.56-4.28,1.1c-1.39,0.43-2.76,0.95-4.11,1.59c-1.35,0.63-2.65,1.3-3.9,2
		c-1.38,0.83-2.69,1.72-3.94,2.66c-1.24,0.94-2.42,1.89-3.52,2.87c-1.11,0.98-2.14,1.99-3.11,3.04c-0.97,1.05-1.87,2.06-2.69,3.04
		c-1.67,2.08-3.16,4.06-4.48,5.94c-1.32,1.88-2.4,3.58-3.24,5.11c-0.83,1.38-1.38,2.49-1.65,3.32c-0.13,0.16-0.22,0.33-0.28,0.52
		c-0.06,0.19-0.15,0.29-0.28,0.31c0,0.14,0,0.27,0,0.38c0,0.11,0,0.17,0,0.17c0.56-0.82,1.16-1.59,1.79-2.31
		c0.63-0.72,1.23-1.42,1.79-2.11c0.7-0.68,1.37-1.32,2.03-1.93c0.66-0.61,1.27-1.26,1.83-1.93c0.56-0.69,1.16-1.32,1.79-1.9
		c0.63-0.58,1.23-1.15,1.8-1.69c0.55-0.55,1.11-1.11,1.69-1.66c0.58-0.55,1.22-1.11,1.9-1.66c2.22-2.2,4.35-4.15,6.39-5.84
		c2.04-1.69,3.97-3.15,5.77-4.39c0.96-0.69,1.87-1.31,2.73-1.87c0.86-0.55,1.7-1.04,2.52-1.45c0.15-0.13,0.33-0.22,0.55-0.28
		c0.22-0.06,0.4-0.15,0.55-0.28c0.13-0.01,0.22-0.06,0.28-0.14c0.06-0.08,0.15-0.13,0.28-0.14c0.01-0.01,0.06-0.06,0.17-0.14
		c0.11-0.08,0.24-0.13,0.38-0.14c0.27-0.16,0.56-0.33,0.86-0.52c0.31-0.19,0.66-0.29,1.07-0.31c0.26-0.14,0.5-0.27,0.69-0.41
		c0.2-0.14,0.43-0.27,0.69-0.41c0.27-0.13,0.49-0.22,0.66-0.27c0.17-0.06,0.32-0.15,0.45-0.27c0.29-0.13,0.54-0.21,0.76-0.24
		C219.61,91.55,219.72,91.54,219.74,91.55L219.74,91.55z M566.21,89.88c-1.1-0.01-2.22,0.01-3.35,0.07
		c-1.13,0.06-2.32,0.22-3.56,0.48c-1.12,0.29-2.27,0.68-3.45,1.17c-1.19,0.49-2.34,1.02-3.45,1.59c-1.1,0.68-2.14,1.39-3.11,2.14
		c-0.97,0.75-1.86,1.6-2.69,2.55c-0.96,0.84-1.8,1.71-2.51,2.62c-0.72,0.91-1.35,1.78-1.89,2.62c-0.62,0.97-1.17,1.92-1.66,2.84
		l-0.49,0.98l0.13,0.07c0.13,0.08,0.28,0.18,0.45,0.29c0.66,0.45,0.72,1.55,0.17,3.28l-0.27,0.66l0.99-1.44
		c1.62-2.31,3.25-4.36,4.88-6.16c3.27-3.6,6.38-6.35,9.31-8.25c1.54-0.97,2.95-1.8,4.25-2.49c1.29-0.69,2.37-1.24,3.21-1.66
		c0.54-0.27,0.98-0.49,1.31-0.66c0.33-0.17,0.63-0.32,0.9-0.45c0.28-0.01,0.48-0.06,0.62-0.14
		C566.14,89.94,566.21,89.89,566.21,89.88L566.21,89.88z M296.72,87.03c-0.38,0.01-0.91,0.06-1.61,0.16
		c-1.39,0.2-2.77,1.66-4.13,4.38c-1.17,2.61-1.32,4.5-0.45,5.66c0.87,1.16,2.31,1.67,4.33,1.52c0.33-0.02,0.77-0.12,1.32-0.28
		c0.54-0.16,0.84-0.25,0.9-0.28c0.88-2.58,1.41-4.94,1.59-7.08c0.18-2.13-0.25-3.46-1.31-3.97
		C297.31,87.07,297.1,87.02,296.72,87.03L296.72,87.03z M299.06,79.74c0.61,0.01,0.96,0.09,1.07,0.24c3.19,0.82,5,2.7,5.43,5.62
		c0.43,2.92,0.18,6.1-0.76,9.54c0.86-0.38,2.04-1,3.56-1.86c1.52-0.86,2.36-1.34,2.53-1.45c2.49-1.66,4.91-2.94,7.26-3.85
		c2.35-0.9,4.63-1.36,6.84-1.37c1.09,0,2.15,0.07,3.17,0.21c1.02,0.14,2.08,0.34,3.17,0.62c0.18-0.05,1.29,0.51,3.35,1.69
		c2.06,1.18,3.99,3.3,5.81,6.35c1.81,3.05,2.44,7.36,1.88,12.92c-1.08,6.1-3.19,12.42-6.34,18.96c-3.15,6.55-6.4,12.66-9.77,18.35
		c-3.36,5.69-5.91,10.29-7.63,13.81c-3.24,8.21-4.51,13.21-3.81,14.99c0.7,1.78,1.23,2.5,1.59,2.14c5.13,0.48,11.1-2.52,17.91-9
		c6.81-6.48,13.5-14.95,20.06-25.39l1.65-2.7l0.61-2.67c0.23-0.94,0.49-1.87,0.77-2.8c2.63-8.8,7.06-17.2,13.3-25.19
		c6.24-7.99,13.97-14.15,23.19-18.49c9.22-4.34,19.62-5.43,31.19-3.27c0.1-0.03,1.14,0.23,3.11,0.79c1.97,0.56,4.24,1.57,6.83,3.06
		c2.91,1.89,5.42,4.59,7.51,8.11c2.09,3.52,2.81,8.09,2.14,13.71c-1.03,5.23-3.38,8.66-7.06,10.29c-3.68,1.63-6.65,2.44-8.93,2.42
		c-0.01,0-0.06,0-0.14,0c-0.08,0-0.13,0-0.14,0c-0.52-0.03-0.79-0.18-0.83-0.45c-0.03-0.27-0.03-0.49,0-0.66
		c1.2-2.19,2.39-5.68,3.59-10.47c1.2-4.78,1.01-9.31-0.55-13.57c-0.41-1.11-0.97-2.14-1.69-3.07c-0.72-0.94-1.63-1.76-2.73-2.45
		c-4.19-2.4-9.05-1.96-14.59,1.31c-5.54,3.28-10.95,8.4-16.25,15.35c-5.29,6.96-9.66,14.76-13.11,23.4
		c-4.82,12.95-6.78,23.25-5.87,30.88c0.91,7.63,3.79,11.99,8.63,13.06c3.97,0.53,8.74-1.85,14.3-7.12
		c5.56-5.27,10.47-11.65,14.72-19.13c1.82-2.98,3.57-6.21,5.25-9.67c1.68-3.47,3.16-6.69,4.42-9.67c0-0.06,0.14-0.22,0.41-0.48
		c0.28-0.26,0.69-0.29,1.24-0.07c3.69,1.82,7.14,4.61,10.35,8.36c3.2,3.75,3.89,8.34,2.06,13.75c-0.42,0.82-0.82,1.59-1.2,2.31
		c-0.39,0.72-0.72,1.42-1.01,2.11c-3.33,8.1-4.54,13.11-3.62,15.03c0.91,1.92,1.57,2.71,1.97,2.38c3.81,0.4,8.1-1.87,12.88-6.8
		c4.78-4.93,9.57-11.2,14.36-18.79c1.2-1.9,2.37-3.8,3.51-5.7l0.69-1.19l0.31-0.76c1.87-4.4,3.97-8.9,6.3-13.5
		c4.65-9.19,8.91-17.74,12.79-25.65c1.35-2.61,2.32-4.92,2.9-6.91c0.59-1.99,1-3.74,1.24-5.24c0.1-1.33,0.73-2.73,1.9-4.2
		c1.17-1.47,3.12-1.63,5.84-0.48c6.4,3.39,9.71,8.24,9.94,14.56c0.23,6.31-1.26,13.17-4.47,20.58c-3.21,7.4-6.79,14.44-10.73,21.1
		c-3.94,6.66-6.89,12.04-8.85,16.13c-3.23,8.08-4.5,12.99-3.8,14.75c0.7,1.76,1.23,2.46,1.59,2.11c5.14,0.57,11.11-2.39,17.92-8.88
		c6.81-6.49,13.5-14.97,20.06-25.45c4.92-7.86,9.23-15.98,12.94-24.36l0.34-0.79l0.1-1.02c0.3-2.33,0.88-4.51,1.73-6.55
		c1.7-4.08,2.69-6.24,2.99-6.47c1.29-2.71,4.23-6.05,8.84-10.03c4.6-3.98,11.42-6.42,20.44-7.33c9.44-0.31,16.37,0.83,20.78,3.41
		c4.41,2.58,7.1,5.7,8.07,9.35c0.97,3.66,1.02,6.94,0.15,9.85c0.08,0.28-0.66,2.11-2.21,5.48c-1.55,3.37-4.37,6.59-8.47,9.66
		c-4.1,3.07-9.93,4.28-17.49,3.64c-2.03-0.4-2.95-1.12-2.76-2.14c0.18-1.02,0.37-1.6,0.55-1.73c2.1-2.45,4.5-5.65,7.18-9.6
		c2.69-3.95,4.65-7.74,5.89-11.38c1.24-3.64,0.75-6.22-1.47-7.75c-3.2-1.4-6.84-0.44-10.92,2.9c-4.08,3.33-7.64,7.51-10.67,12.53
		c-3.04,5.02-4.59,9.36-4.66,13.02c0.21,4.42,1.93,7.6,5.18,9.53c3.25,1.93,6.77,3.45,10.57,4.56c7.09,2.47,12.52,5.33,16.3,8.6
		c3.78,3.26,5.62,7.03,5.52,11.29c-0.01,3.39-1.49,7.51-4.43,12.37c-2.94,4.86-7.81,9.47-14.61,13.84
		c-6.8,4.37-16.01,7.51-27.62,9.42c-13.9,0.81-22.89-0.6-26.96-4.21c-4.07-3.61-5.94-6.81-5.63-9.6c-0.02-0.57,0.09-1.16,0.35-1.76
		c0.25-0.6,0.78-1.12,1.59-1.55c0.43-0.15,1.02-0.2,1.8-0.14c0.77,0.06,1.65,0.29,2.62,0.69c1.91,0.89,6.22,0.74,12.9-0.45
		c6.69-1.19,13.67-3.77,20.94-7.75c7.27-3.98,12.74-9.72,16.4-17.21c0.18-0.14,0.3-0.83,0.38-2.07c0.07-1.24-0.97-2.21-3.14-2.9
		c-3.74-0.97-7.93-2.62-12.56-4.94c-4.63-2.32-7.17-3.62-7.6-3.9c-3.89-2.27-6.66-4.85-8.31-7.74l-0.22-0.46l-0.51,1.11
		c-6.9,14.92-13.56,26.3-19.98,34.14c-8.93,10.91-16.77,17.62-23.53,20.13c-6.75,2.51-11.79,3.45-15.12,2.82
		c-8.55-0.72-13.6-3.88-15.16-9.48c-0.59-2.1-0.86-4.4-0.83-6.89l0.07-1.31l-0.28,0.35c-6.23,7.56-11.74,12.36-16.51,14.39
		c-5.87,2.5-10.44,3.48-13.69,2.95c-5.57-0.22-9.32-2.05-11.24-5.51c-1.92-3.46-2.49-8.05-1.72-13.79h-0.01
		c-3.59,5.05-8.08,9.51-13.47,13.38c-5.39,3.87-11.68,5.84-18.86,5.92c-9.29-0.43-16.07-3.47-20.36-9.13
		c-4.29-5.66-6.66-12.49-7.11-20.48l-0.06-1.78l-0.19,0.29c-2,3.04-3.98,5.76-5.93,8.14c-8.92,10.91-16.75,17.62-23.46,20.13
		c-6.72,2.51-11.74,3.45-15.06,2.82h0c-10.12-0.93-15.43-5.17-15.92-12.72c-0.5-7.55,1.6-16.71,6.28-27.45
		c4.69-10.75,9.75-21.37,15.18-31.88c4.82-9.2,7.06-15.04,6.71-17.5c-0.35-2.47-0.74-3.54-1.17-3.21c0,0.01,0-0.01,0-0.03
		c-1.37-0.58-2.79-0.24-4.26,1.04c-1.47,1.28-2.26,2.04-2.38,2.28c-0.22,0.22-1.44,1.44-3.63,3.66c-2.2,2.22-4.03,4.13-5.5,5.73
		c-1.12,1.07-2.21,2.01-3.27,2.82l-0.08,0.06l-0.07,0.37c-0.05,0.2-0.1,0.4-0.17,0.62c-9.89,24.6-18.87,42.33-26.96,53.21
		c-8.09,10.88-15.07,17.57-20.94,20.07c-5.87,2.5-10.44,3.48-13.69,2.95c-5.57-0.22-9.32-2.05-11.24-5.51
		c-1.92-3.46-2.49-8.05-1.72-13.79h-0.01c-3.59,5.05-8.08,9.51-13.47,13.38s-11.68,5.84-18.86,5.92
		c-9.29-0.43-16.07-3.47-20.36-9.13c-4.29-5.66-6.66-12.49-7.11-20.48c-0.45-7.99,0.42-15.7,2.64-23.13
		c2.63-8.8,7.06-17.2,13.3-25.19c6.24-7.99,13.97-14.15,23.19-18.49c9.22-4.34,19.62-5.43,31.19-3.27c0.1-0.03,1.14,0.23,3.11,0.79
		c1.97,0.56,4.24,1.57,6.83,3.06c2.91,1.89,5.42,4.59,7.51,8.11c2.09,3.52,2.81,8.09,2.14,13.71c-1.03,5.23-3.38,8.66-7.06,10.29
		c-3.68,1.63-6.65,2.44-8.93,2.42c-0.01,0-0.06,0-0.14,0c-0.08,0-0.13,0-0.14,0c-0.52-0.03-0.79-0.18-0.83-0.45
		c-0.03-0.27-0.03-0.49,0-0.66c1.2-2.19,2.39-5.68,3.59-10.47c1.2-4.78,1.01-9.31-0.55-13.57c-0.41-1.11-0.97-2.14-1.69-3.07
		c-0.72-0.94-1.63-1.76-2.73-2.45c-4.19-2.4-9.05-1.96-14.59,1.31c-5.54,3.28-10.95,8.4-16.25,15.35
		c-5.29,6.96-9.66,14.76-13.11,23.4c-4.82,12.95-6.78,23.25-5.87,30.88c0.91,7.63,3.79,11.99,8.63,13.06
		c3.97,0.53,8.74-1.85,14.3-7.12c5.56-5.27,10.47-11.65,14.72-19.13c1.82-2.98,3.57-6.21,5.25-9.67c1.68-3.47,3.16-6.69,4.42-9.67
		c0-0.06,0.14-0.22,0.41-0.48c0.28-0.26,0.69-0.29,1.24-0.07c3.69,1.82,7.14,4.61,10.35,8.36c3.2,3.75,3.89,8.34,2.06,13.75
		c-0.42,0.82-0.82,1.59-1.2,2.31c-0.39,0.72-0.72,1.42-1.01,2.11c-3.33,8.1-4.54,13.11-3.62,15.03c0.91,1.92,1.57,2.71,1.97,2.38
		c3.81,0.4,8.1-1.87,12.88-6.8c4.78-4.93,9.57-11.2,14.36-18.79c4.79-7.6,9.11-15.19,12.96-22.78c2.89-5.69,5.24-10.64,7.05-14.83
		l0.01-0.01l-0.46,0.05c-3.55,0.22-5.43,0.19-5.64-0.1c-5.1-1.67-7.95-4.31-8.54-7.91c-0.59-3.6-0.29-6.95,0.9-10.05
		c1.19-3.1,1.9-4.76,2.13-4.96c4-6.23,7.92-9.63,11.77-10.2C296.34,79.89,298.05,79.72,299.06,79.74L299.06,79.74z M94.99,4.81
		c-3.6,0.14-7.11,0.41-10.53,0.8c-3.42,0.39-6.73,0.86-9.91,1.42c-0.41,0.14-0.83,0.27-1.24,0.38c-0.41,0.11-0.83,0.17-1.24,0.17
		c-0.15,0.01-0.33,0.06-0.55,0.14c-0.22,0.08-0.4,0.13-0.55,0.14L70.4,8.14h-0.55c-0.82,0.27-1.59,0.5-2.31,0.69
		c-0.72,0.2-1.42,0.43-2.11,0.69c-1.52,0.42-2.97,0.9-4.35,1.42c-1.38,0.53-2.69,1.07-3.94,1.63c-0.29,0.14-0.61,0.28-0.97,0.42
		c-0.36,0.14-0.68,0.28-0.97,0.42c-0.55,0.5-1.1,0.87-1.66,1.1c-0.28,0.05-0.55,0.23-0.83,0.55c-0.14,0.01-0.28,0.06-0.41,0.14
		c-0.14,0.08-0.28,0.13-0.41,0.14c-0.28,0.32-0.55,0.5-0.83,0.55c-0.01,0.13-0.06,0.21-0.14,0.24c-0.08,0.03-0.13,0.04-0.14,0.03
		c-0.13,0.13-0.22,0.21-0.28,0.24c-0.06,0.03-0.15,0.04-0.28,0.03c-0.26,0.15-0.49,0.33-0.69,0.55c-0.2,0.22-0.43,0.4-0.69,0.55
		c-0.26,0.15-0.49,0.33-0.69,0.55c-0.2,0.22-0.43,0.4-0.69,0.55c-0.26,0.13-0.49,0.28-0.69,0.45c-0.2,0.17-0.43,0.38-0.69,0.65
		c-0.05,0.05-0.23,0.23-0.55,0.55c-0.13,0.01-0.22,0.06-0.28,0.17c-0.06,0.11-0.15,0.24-0.28,0.38c-1.51,1.41-2.7,2.8-3.59,4.18
		c-0.89,1.38-1.53,2.56-1.93,3.56c-0.51,1.11-0.87,1.94-1.1,2.49c0,0.28,0,0.55,0,0.83c-0.05-0.28,0.05-0.55,0.28-0.83
		c-0.05-0.28,0.05-0.55,0.28-0.83c0.01-0.14,0.06-0.28,0.14-0.41c0.08-0.14,0.13-0.28,0.14-0.41c0.13-0.14,0.22-0.28,0.28-0.41
		c0.06-0.14,0.15-0.28,0.28-0.41c0.29-0.43,0.61-0.89,0.97-1.38c0.36-0.5,0.68-0.96,0.97-1.38c0.83-0.84,1.66-1.65,2.49-2.45
		c0.83-0.8,1.66-1.55,2.49-2.25c1.8-1.37,3.66-2.55,5.59-3.54c1.93-0.99,3.94-1.83,6.01-2.51c3.82-1.61,7.78-2.8,11.88-3.59
		c0.43-0.13,0.89-0.22,1.38-0.28c0.49-0.06,0.96-0.15,1.38-0.28c0.28-0.01,0.55-0.06,0.83-0.14c0.28-0.08,0.55-0.13,0.83-0.14
		c0.26,0.01,0.49-0.01,0.69-0.03c0.2-0.03,0.43-0.11,0.69-0.24c0.54-0.01,1.05-0.06,1.52-0.14c0.47-0.08,0.98-0.13,1.52-0.14
		c0.43-0.13,0.89-0.21,1.38-0.24c0.49-0.03,0.96-0.04,1.38-0.03c3.87-0.41,7.6-0.7,11.19-0.87c3.59-0.17,7.04-0.25,10.36-0.24
		c0.83,0.01,1.66,0.06,2.49,0.14c0.83,0.08,1.66,0.13,2.49,0.14c1.7,0,3.27,0,4.7,0c1.53,0.01,3.03,0.06,4.52,0.14
		c1.49,0.08,2.93,0.13,4.32,0.14c5.68,0.28,10.76,0.55,15.23,0.8c4.47,0.25,8.24,0.44,11.29,0.59c1.53,0.01,2.89,0.06,4.11,0.14
		c1.21,0.08,2.24,0.13,3.07,0.14c1.66,0,2.49,0,2.49,0c-6.39-1.25-13.09-2.35-20.1-3.29c-7.01-0.94-14.12-1.69-21.34-2.25
		c-0.96-0.01-1.88-0.06-2.76-0.14c-0.89-0.08-1.81-0.13-2.76-0.14c-0.84-0.01-1.71-0.06-2.62-0.14c-0.91-0.08-1.78-0.13-2.62-0.14
		c-0.96,0-1.88,0-2.76,0c-0.89,0-1.81,0-2.76,0c-0.78,0-1.7,0-2.76,0C96.65,4.81,95.82,4.81,94.99,4.81L94.99,4.81z M104.24,0
		c5.29,0.01,10.68,0.24,16.16,0.7c12.88,1.17,26.68,2.93,41.38,5.28c14.71,2.35,28.7,4.32,42,5.91c13.29,1.59,24.26,1.82,32.91,0.7
		c0.13,0,0.22,0,0.28,0c0.06,0,0.15,0,0.28,0c0.77-0.18,1.86-0.23,3.28-0.14c1.42,0.09,2.72,0.6,3.9,1.52
		c0.74,0.81,1.13,1.94,1.17,3.37c0.05,1.43-0.53,3.25-1.73,5.44c-1.5,2.63-3.54,5.53-6.11,8.71c-2.57,3.18-5.78,6.64-9.63,10.37
		c-12.81,12.2-28.12,24.37-45.93,36.51s-36.14,23.98-55.01,35.52c-18.87,11.54-36.3,22.49-52.29,32.87
		c-15.99,10.38-28.58,19.9-37.77,28.56c-9.19,8.66-13,16.19-11.45,22.59c11.21-1.34,20.66-2.66,28.32-3.96
		c7.67-1.3,11.66-2.01,11.98-2.1c21.11-3.9,37.52-4.77,49.22-2.61c11.7,2.15,20.05,5.86,25.06,11.13c5,5.26,8.02,10.61,9.05,16.05
		c1.03,5.43,1.43,9.48,1.2,12.14c-0.02,0.4-0.12,0.64-0.28,0.73c-0.16,0.09-0.25,0.12-0.28,0.1c-0.13-0.02-0.21-0.12-0.24-0.28
		c-0.03-0.16-0.04-0.25-0.03-0.28c-3.82-8.1-12.23-13.47-25.25-16.09c-13.01-2.62-28.16-3.59-45.44-2.9
		c-17.28,0.69-34.22,1.96-50.83,3.79c-7.29,0.37-12.89-0.52-16.79-2.66c-3.9-2.14-6.59-4.41-8.06-6.83
		c-1.47-2.41-2.21-3.85-2.22-4.31c-2.36-7.2-0.92-15.1,4.3-23.69c5.22-8.6,12.91-17.19,23.07-25.79
		c10.16-8.6,21.47-16.5,33.93-23.71c37.38-21.66,69.86-41.19,97.44-58.6c27.58-17.41,48.87-32.04,63.88-43.89c-0.55,0-1.1,0-1.66,0
		c-7.91,0-18.97-0.47-33.2-1.4c-14.22-0.93-29.57-1.64-46.03-2.13s-32.01-0.07-46.64,1.25c-14.63,1.32-26.31,4.24-35.03,8.75
		C52.43,35.12,48.7,41.9,49.96,50.96c-0.05,0.11,0.25,1,0.9,2.66c0.64,1.66,1.91,3.45,3.8,5.36c0.04,0.01,0.17,0.13,0.38,0.37
		c0.21,0.24,0.27,0.57,0.17,0.98c0.01,0.16-0.21,0.32-0.66,0.48c-0.44,0.16-1.15,0.18-2.11,0.07c-2.84-0.3-6.15-1.22-9.91-2.78
		c-3.76-1.56-6.94-4.14-9.53-7.76c-2.59-3.62-3.56-8.66-2.91-15.14c1.36-9.28,6.46-16.66,15.3-22.14
		c8.84-5.49,19.9-9.22,33.17-11.21C86.87,0.61,95.42-0.01,104.24,0L104.24,0z"/>
</svg>